<?xml version="1.0" standalone="no"?>
<!DOCTYPE svg PUBLIC "-//W3C//DTD SVG 20010904//EN"
 "http://www.w3.org/TR/2001/REC-SVG-20010904/DTD/svg10.dtd">
<svg version="1.0" xmlns="http://www.w3.org/2000/svg"
 width="833.000000pt" height="833.000000pt" viewBox="0 0 833.000000 833.000000"
 preserveAspectRatio="xMidYMid meet">
<metadata>
Created by potrace 1.11, written by Peter Selinger 2001-2013
</metadata>
<g transform="translate(0.000000,833.000000) scale(0.100000,-0.100000)"
fill="#000000" stroke="none">
<path d="M4177 7860 c9 -67 10 -215 1 -290 -11 -94 -37 -206 -108 -462 -38
-136 -72 -266 -75 -290 -4 -24 -10 -61 -15 -82 -11 -48 -7 -274 5 -300 6 -13
5 -17 -2 -13 -6 4 -25 44 -41 90 -52 145 -71 266 -87 577 -12 220 -18 272 -50
425 -21 104 -80 216 -151 289 -30 31 -59 56 -64 56 -5 0 0 -25 11 -55 55 -158
57 -468 4 -785 -14 -81 -20 -184 -19 -330 1 -147 4 -174 27 -250 23 -75 23
-82 6 -60 -58 74 -159 334 -183 470 -2 14 -9 43 -14 65 -6 22 -13 51 -16 65
-80 417 -186 633 -356 729 l-41 23 29 -58 c29 -58 77 -197 87 -253 3 -16 7
-49 10 -72 3 -24 8 -61 11 -82 6 -51 12 -157 19 -347 11 -316 34 -454 101
-600 l35 -75 -29 30 c-101 108 -171 237 -287 530 -164 414 -238 537 -380 635
-38 26 -108 60 -125 60 -5 0 14 -33 40 -73 110 -164 150 -298 266 -895 9 -47
76 -238 101 -289 14 -30 38 -70 52 -91 46 -63 47 -68 6 -35 -118 94 -191 191
-365 483 -145 243 -204 330 -280 414 -54 58 -145 127 -197 147 -46 18 -121 37
-127 32 -3 -3 8 -16 24 -30 54 -45 147 -180 203 -295 31 -62 97 -223 147 -358
130 -346 200 -480 308 -586 l47 -47 -51 26 c-119 60 -254 191 -459 447 -138
172 -285 320 -375 378 -71 47 -166 80 -247 86 -29 2 -53 3 -53 2 0 -2 21 -18
48 -36 92 -66 245 -241 308 -355 125 -223 261 -457 302 -517 66 -97 162 -200
227 -244 72 -49 36 -42 -80 15 -81 40 -250 156 -301 205 -6 6 -39 36 -74 66
-35 30 -68 60 -74 66 -10 9 -74 66 -151 132 -56 49 -180 134 -239 164 -103 52
-234 78 -315 62 l-32 -7 58 -29 c133 -68 281 -205 438 -403 43 -55 112 -143
154 -195 140 -178 285 -310 416 -379 36 -19 37 -20 10 -15 -42 8 -136 33 -160
43 -83 32 -244 121 -407 225 -285 181 -418 249 -533 272 -62 12 -206 9 -248
-5 l-38 -13 78 -27 c160 -56 300 -153 526 -364 115 -107 229 -210 272 -245
102 -82 236 -160 313 -183 44 -13 59 -30 20 -24 -13 2 -48 6 -78 9 -120 10
-277 64 -600 208 -25 11 -59 27 -77 34 -43 19 -221 80 -258 89 -60 14 -71 15
-144 20 -86 5 -163 -8 -229 -37 l-47 -21 69 -13 c191 -37 335 -109 661 -330
156 -106 261 -169 350 -210 80 -37 204 -74 250 -74 26 -1 28 -2 11 -11 -28
-17 -209 -13 -316 6 -52 9 -198 43 -325 75 -126 32 -246 61 -265 64 -19 3 -62
10 -95 16 -146 24 -290 8 -401 -47 -84 -41 -83 -48 6 -50 164 -5 336 -56 590
-175 371 -174 502 -219 675 -234 44 -4 81 -8 83 -9 2 -2 -32 -11 -75 -21 -109
-25 -387 -25 -588 1 -154 20 -422 27 -500 12 -64 -12 -145 -37 -179 -55 -56
-31 -104 -66 -115 -84 -10 -17 -9 -18 16 -13 49 11 236 13 308 3 78 -10 276
-56 405 -95 46 -14 91 -27 100 -29 8 -2 49 -12 90 -24 41 -11 91 -23 110 -26
19 -3 64 -12 99 -19 69 -14 292 -14 325 0 13 6 17 5 13 -2 -19 -31 -254 -95
-397 -108 -36 -3 -85 -8 -110 -10 -25 -2 -97 -7 -160 -11 -361 -19 -515 -53
-640 -138 -46 -31 -130 -113 -130 -126 0 -4 26 1 58 12 31 10 93 24 137 32 78
12 315 14 385 3 19 -3 69 -9 110 -13 41 -3 77 -8 80 -9 3 -2 37 -7 75 -10 39
-4 102 -10 140 -15 169 -19 360 -5 477 35 l43 15 -25 -20 c-36 -28 -145 -85
-210 -109 -89 -33 -222 -67 -445 -117 -290 -64 -392 -100 -515 -180 -67 -44
-88 -64 -140 -136 -45 -62 -38 -69 33 -33 62 32 217 79 292 89 113 16 217 23
440 31 160 5 263 13 335 25 30 5 70 12 89 15 54 9 151 44 211 76 l55 29 -49
-46 c-107 -99 -240 -168 -571 -299 -298 -118 -421 -184 -517 -278 -49 -49
-111 -145 -122 -189 -6 -26 -5 -25 62 19 161 109 326 159 852 259 147 28 352
107 435 169 55 40 60 40 27 -2 -90 -114 -190 -190 -482 -363 -330 -196 -449
-290 -526 -411 -25 -40 -75 -179 -69 -189 2 -4 28 16 58 44 130 123 279 200
647 333 317 115 471 198 578 313 l33 35 -25 -52 c-31 -63 -98 -147 -181 -228
-70 -68 -61 -61 -295 -256 -263 -219 -358 -329 -406 -469 -22 -63 -40 -192
-25 -173 4 4 28 35 53 68 86 113 229 224 458 352 247 139 344 197 415 246 77
55 199 173 234 227 18 28 21 30 16 10 -14 -52 -61 -147 -107 -217 -38 -58
-166 -219 -213 -269 -329 -351 -449 -569 -420 -763 l7 -45 36 70 c71 133 193
266 392 424 52 42 140 112 195 155 190 150 303 273 372 400 29 54 32 56 27 25
-25 -152 -94 -291 -311 -630 -179 -278 -245 -445 -238 -605 2 -44 9 -95 16
-114 l12 -34 17 54 c44 145 153 314 309 483 25 27 74 79 107 115 233 250 325
377 374 511 35 95 38 99 34 40 -13 -163 -52 -293 -167 -555 -160 -367 -190
-465 -190 -625 -1 -85 4 -117 23 -168 12 -34 26 -65 31 -67 4 -3 10 19 14 47
22 161 104 331 317 653 80 121 166 258 191 305 52 96 107 252 107 301 0 24 3
30 11 22 12 -12 16 -166 6 -243 -10 -77 -44 -227 -96 -433 -61 -235 -81 -352
-81 -467 0 -93 25 -203 60 -266 40 -70 46 -68 47 14 4 170 51 323 190 627 97
209 101 220 137 309 51 125 79 247 80 347 1 48 4 85 7 83 5 -3 17 -48 20 -76
0 -2 7 -29 14 -61 14 -60 14 -322 1 -437 -4 -30 -9 -73 -12 -95 -14 -125 -19
-206 -18 -345 0 -172 13 -242 64 -345 28 -56 87 -131 96 -122 2 2 0 26 -5 53
-9 45 -7 245 3 305 11 73 32 160 73 309 26 91 57 203 70 250 13 47 25 96 28
110 3 14 11 59 19 100 15 73 16 275 2 329 -11 46 13 7 39 -63 29 -78 52 -167
60 -241 3 -28 8 -61 10 -75 5 -26 11 -120 20 -285 19 -342 54 -499 139 -625
30 -45 114 -130 128 -130 4 0 -1 24 -11 53 -42 122 -55 302 -38 507 7 83 9 98
21 190 26 203 37 339 35 434 -2 88 -25 229 -48 291 l-11 30 20 -25 c56 -70
146 -286 161 -385 1 -5 5 -20 10 -33 5 -13 11 -35 14 -50 12 -66 17 -87 44
-208 65 -285 110 -407 189 -514 40 -54 105 -113 151 -137 43 -23 51 -21 27 6
-7 9 -27 52 -45 96 -64 165 -85 311 -96 675 -3 91 -7 185 -10 210 -3 25 -7 70
-10 100 -3 30 -7 62 -10 70 -2 8 -7 29 -9 45 -8 47 -54 175 -76 212 -28 48
-25 51 13 11 103 -110 169 -234 293 -549 145 -371 217 -493 349 -594 42 -32
126 -75 146 -75 5 0 -6 21 -25 48 -89 124 -160 309 -202 522 -3 14 -7 32 -9
40 -2 8 -7 30 -10 47 -61 363 -143 612 -237 719 l-33 38 33 -20 c42 -24 139
-122 192 -194 50 -66 118 -175 233 -370 192 -327 305 -446 478 -504 40 -14 76
-23 80 -21 3 2 -18 29 -46 59 -126 132 -192 262 -354 703 -95 257 -170 397
-270 501 -28 29 -48 52 -46 52 10 0 113 -66 155 -99 77 -60 169 -159 342 -366
163 -195 265 -303 339 -357 49 -36 145 -84 194 -97 53 -13 151 -22 139 -12 -5
4 -39 31 -76 60 -126 98 -222 230 -414 569 -136 242 -119 214 -186 307 -61 86
-149 177 -213 219 -46 30 -44 32 16 11 80 -28 236 -121 311 -187 14 -13 37
-32 50 -42 46 -38 94 -79 138 -120 231 -211 371 -310 506 -356 59 -21 191 -34
233 -23 19 5 14 10 -36 35 -147 75 -287 211 -514 498 -223 284 -329 389 -471
466 -55 30 -59 33 -28 28 154 -26 280 -88 599 -291 350 -224 519 -285 701
-252 38 7 70 15 70 19 0 4 -19 13 -42 19 -135 41 -318 158 -478 307 -25 23
-58 54 -75 69 -16 14 -57 52 -90 84 -52 49 -141 126 -226 195 -69 57 -260 156
-299 156 -6 0 -10 4 -10 9 0 8 13 8 118 -4 96 -12 269 -68 424 -139 31 -14 59
-26 61 -26 3 0 38 -15 79 -33 40 -19 87 -39 103 -46 46 -20 220 -80 247 -85
12 -2 41 -8 63 -13 96 -23 287 1 341 42 18 14 18 14 -8 16 -16 1 -31 2 -35 3
-5 1 -26 5 -48 10 -87 17 -271 96 -370 159 -72 45 -251 163 -255 167 -3 3 -48
33 -100 66 -216 138 -343 194 -473 211 -63 8 -66 17 -9 22 178 14 264 1 621
-89 289 -73 367 -87 488 -88 142 0 242 27 322 87 23 18 23 18 -57 19 -183 3
-336 52 -717 232 -252 119 -421 171 -556 174 -48 0 -85 4 -81 8 4 4 36 15 72
24 93 25 450 24 581 -1 56 -11 214 -20 349 -19 186 1 285 23 378 85 111 74
118 88 35 71 -47 -11 -282 -10 -299 1 -5 3 -26 8 -46 11 -21 3 -59 11 -85 17
-27 6 -57 12 -68 15 -11 2 -117 31 -235 64 -118 33 -226 63 -240 65 -14 3 -36
7 -50 10 -125 26 -307 31 -390 10 -14 -3 -2 5 25 18 52 25 127 53 167 61 13 3
32 7 43 9 68 15 237 32 425 42 166 9 296 21 330 30 8 2 31 7 50 10 57 9 150
37 156 46 3 5 12 9 20 9 8 0 39 15 67 34 78 49 190 169 130 138 -26 -14 -149
-43 -208 -50 -70 -8 -244 -8 -340 1 -77 7 -96 10 -192 22 -24 3 -62 7 -85 10
-24 3 -61 8 -83 11 -22 3 -110 7 -195 9 -154 4 -258 -9 -355 -44 l-30 -11 25
20 c43 34 173 98 253 124 78 26 291 80 357 91 75 13 249 57 325 82 183 60 277
119 361 228 65 84 63 88 -28 46 -107 -49 -210 -76 -368 -96 -36 -5 -203 -14
-360 -20 -321 -13 -466 -37 -595 -100 -38 -18 -71 -32 -73 -31 -5 6 103 93
158 128 79 51 198 105 420 193 349 137 501 226 593 347 36 48 77 127 77 148 0
5 -28 -10 -62 -34 -61 -42 -116 -71 -223 -114 -63 -26 -305 -86 -427 -107
-301 -52 -531 -127 -643 -209 -52 -39 -60 -41 -38 -10 34 47 152 156 226 209
38 26 128 83 200 126 260 153 340 205 420 269 90 72 165 158 198 229 23 49 50
137 43 144 -2 2 -24 -15 -47 -37 -136 -129 -270 -202 -582 -316 -404 -147
-526 -210 -647 -334 -43 -45 -47 -42 -17 11 68 123 172 229 449 459 297 248
385 347 437 497 22 62 39 189 23 170 -3 -4 -29 -37 -57 -73 -102 -131 -228
-223 -553 -404 -310 -174 -461 -286 -541 -404 -40 -60 -31 -25 21 84 55 113
129 213 316 426 245 280 314 379 356 511 21 67 31 169 21 218 -6 30 -7 29 -42
-39 -46 -85 -117 -175 -213 -268 -68 -66 -115 -105 -373 -310 -195 -155 -300
-267 -372 -398 -19 -33 -32 -52 -29 -41 2 11 12 52 21 91 9 40 42 123 73 185
53 106 84 158 249 416 104 162 177 323 203 443 11 56 6 184 -10 228 l-12 33
-25 -72 c-46 -137 -154 -303 -297 -458 -271 -292 -275 -296 -340 -380 -71 -92
-124 -186 -153 -271 -24 -68 -26 -67 -23 15 3 116 48 254 188 580 133 310 160
398 167 535 4 88 -8 162 -37 228 l-21 47 -13 -69 c-19 -98 -50 -188 -100 -288
-49 -98 -69 -130 -235 -379 -180 -272 -258 -429 -275 -558 -12 -90 -24 -56
-28 74 -3 105 46 354 129 655 36 130 49 226 49 360 0 129 -2 152 -23 205 -22
54 -66 135 -74 135 -2 0 -4 -35 -5 -77 -1 -121 -54 -339 -108 -441 -8 -15 -14
-30 -14 -34 0 -4 -40 -95 -90 -201 -149 -324 -192 -456 -194 -604 -1 -45 -4
-79 -8 -75 -4 4 -15 36 -24 72 -26 96 -25 338 1 585 16 158 20 220 19 350 0
125 -4 164 -23 233 -22 77 -65 156 -121 222 l-21 25 8 -55z m188 -1832 c122
-13 296 -52 419 -95 103 -36 282 -118 292 -134 3 -5 -12 -9 -33 -9 -33 0 -121
-13 -243 -35 -116 -21 -373 -88 -435 -114 -11 -4 -58 -23 -104 -41 -97 -38
-73 -41 -296 37 -117 41 -298 92 -380 107 -11 2 -58 11 -105 19 -77 15 -187
30 -217 30 -25 1 1 18 85 58 165 78 328 131 492 159 30 6 82 13 115 16 33 4
61 8 63 9 8 7 266 2 347 -7z m-1150 -372 c41 -5 85 -13 125 -21 3 -1 25 -5 50
-9 71 -13 71 -13 155 -35 98 -25 283 -85 348 -113 l48 -21 -63 -34 -63 -35
-55 18 c-30 10 -62 21 -70 26 -63 32 -395 117 -535 137 -44 6 -91 13 -105 16
-14 2 -41 4 -60 5 l-35 1 49 43 c48 42 48 42 105 35 31 -4 79 -10 106 -13z
m2113 -21 c23 -16 42 -33 42 -36 0 -4 -30 -9 -67 -13 -224 -22 -433 -72 -687
-163 l-98 -36 -32 19 c-17 10 -47 26 -66 35 -25 12 -31 19 -20 23 8 3 56 21
105 39 97 37 264 86 384 113 114 25 364 61 381 55 9 -3 35 -19 58 -36z m-2334
-181 c199 -31 414 -90 579 -157 l57 -23 -53 -37 -54 -37 -89 33 c-93 36 -207
74 -240 82 -10 2 -75 17 -144 34 -69 16 -150 32 -180 37 -30 4 -59 8 -65 9 -5
1 -18 3 -28 3 -15 2 -13 8 14 41 37 43 28 43 203 15z m2542 -14 c18 -19 32
-36 31 -37 -1 -1 -61 -11 -132 -23 -184 -29 -438 -101 -589 -165 l-39 -16 -48
33 c-27 18 -48 37 -46 42 6 18 341 127 467 151 12 2 29 6 38 9 9 3 37 8 62 11
25 3 52 8 60 10 8 2 37 6 65 10 27 3 51 7 52 8 12 13 53 -4 79 -33z m-1292
-126 c46 -26 48 -28 30 -41 -11 -8 -40 -25 -65 -38 l-46 -24 -57 33 c-32 18
-58 37 -57 42 1 17 95 63 121 59 14 -2 47 -16 74 -31z m-1484 -39 c131 -19
390 -96 563 -168 l58 -24 -48 -38 c-80 -65 -303 -295 -384 -395 -237 -298
-388 -565 -520 -925 -55 -150 -51 -152 -93 36 -34 152 -41 233 -40 429 2 362
104 699 306 1007 54 84 63 92 87 88 14 -2 46 -7 71 -10z m2936 -29 c87 -117
187 -315 239 -473 50 -151 52 -158 69 -253 9 -47 18 -98 21 -115 13 -63 12
-372 -1 -470 -14 -109 -64 -335 -73 -335 -4 0 -20 39 -36 88 -169 500 -493
982 -902 1344 -29 25 -53 48 -53 51 0 10 254 105 355 133 99 27 291 69 330 71
13 1 31 -13 51 -41z m-1789 -107 c32 -18 62 -35 66 -39 4 -4 -16 -24 -46 -44
l-53 -37 -67 37 -66 37 52 38 c29 20 53 38 54 38 1 1 28 -13 60 -30z m628 -7
l54 -39 -65 -37 -65 -37 -55 36 c-30 20 -54 38 -54 40 0 4 121 75 128 75 2 0
28 -17 57 -38z m-268 -235 c-1 -4 -25 -25 -52 -46 l-50 -38 -52 40 c-29 21
-50 44 -47 49 3 5 27 24 52 43 l46 33 53 -36 c29 -21 51 -41 50 -45z m-605 37
l59 -36 -104 -99 c-373 -351 -647 -798 -797 -1299 -35 -116 -61 -227 -76 -325
-3 -22 -7 -42 -9 -45 -2 -3 -6 -37 -10 -75 -4 -39 -9 -71 -10 -73 -4 -4 -116
150 -136 188 -15 26 -15 36 -3 87 8 32 16 67 18 78 12 60 51 201 78 280 139
417 365 797 658 1108 115 123 248 247 264 247 4 0 35 -16 68 -36z m1253 -126
c185 -187 259 -276 390 -473 196 -293 342 -627 419 -955 15 -63 31 -129 35
-147 7 -25 4 -40 -16 -74 -27 -47 -124 -182 -128 -177 -1 2 -6 32 -9 67 -4 36
-8 67 -10 70 -2 3 -7 26 -10 52 -19 144 -90 395 -163 579 -49 124 -162 355
-214 435 -73 113 -86 134 -149 220 -36 50 -76 103 -90 119 -85 101 -116 133
-231 248 l-128 127 57 35 c31 20 63 36 71 36 8 0 87 -73 176 -162z m-936 -101
l33 -28 -68 -67 c-237 -233 -428 -512 -577 -842 -48 -106 -129 -337 -141 -402
-2 -13 -11 -50 -19 -83 -13 -51 -22 -101 -52 -293 -8 -50 -18 -212 -18 -299
l-1 -93 -27 18 c-15 9 -54 38 -87 63 l-59 47 3 48 c10 156 15 215 24 269 5 33
11 76 14 95 20 134 70 325 125 477 140 391 361 741 658 1040 l113 114 23 -18
c13 -10 38 -31 56 -46z m579 -66 c414 -419 701 -993 777 -1554 4 -27 8 -58 11
-70 2 -12 6 -64 10 -117 3 -52 7 -112 9 -134 2 -36 -1 -41 -57 -85 -33 -25
-72 -54 -87 -63 l-27 -17 -2 117 c-3 212 -28 400 -81 617 -116 469 -367 917
-706 1258 l-87 88 28 24 c78 63 78 64 94 52 8 -6 61 -58 118 -116z m-253 -252
c17 -19 44 -52 60 -74 17 -22 36 -46 43 -54 16 -17 153 -224 182 -276 158
-279 267 -585 314 -885 29 -178 31 -205 31 -423 0 -183 -2 -219 -15 -227 -42
-26 -287 -104 -395 -125 -152 -30 -455 -40 -595 -20 -203 28 -519 123 -533
160 -9 21 -5 371 4 455 40 359 118 630 269 932 121 239 263 442 450 641 l45
48 55 -59 c30 -32 69 -74 85 -93z"/>
</g>
</svg>
